<?xml version="1.0"?>
<svg xmlns="http://www.w3.org/2000/svg" id="Layer_1" enable-background="new 0 0 512 512" height="512px" viewBox="0 0 512 512" width="512px"><g><g><circle cx="426" cy="319" r="10" data-original="#000000" class="active-path" data-old_color="#000000" fill="#07A89B"/><path d="m291 271h-70c-5.523 0-10 4.477-10 10s4.477 10 10 10h70c5.523 0 10-4.477 10-10s-4.477-10-10-10z" data-original="#000000" class="active-path" data-old_color="#000000" fill="#07A89B"/><path d="m482 20h-10v-10c0-5.523-4.477-10-10-10h-412c-5.523 0-10 4.477-10 10v10h-10c-16.542 0-30 13.458-30 30s13.458 30 30 30h10v70c0 5.523 4.477 10 10 10h26v252c0 2.63 1.07 5.21 2.93 7.07s4.44 2.93 7.07 2.93h160v21.463c-14.44 4.314-25 17.712-25 33.537 0 19.299 15.701 35 35 35s35-15.701 35-35c0-15.824-10.56-29.223-25-33.537v-21.463h160c2.63 0 5.21-1.07 7.07-2.93s2.93-4.44 2.93-7.07v-48c0-5.51-4.49-10-10-10s-10 4.49-10 10v38h-320v-242h320v114c0 5.51 4.49 10 10 10s10-4.49 10-10v-114h26c5.523 0 10-4.477 10-10v-70h10c16.542 0 30-13.458 30-30s-13.458-30-30-30zm-211 457c0 8.271-6.729 15-15 15s-15-6.729-15-15 6.729-15 15-15 15 6.729 15 15zm-211-457h392v60h-392zm-30 40c-5.514 0-10-4.486-10-10s4.486-10 10-10h10v20zm422 80h-392v-40h392zm30-80h-10v-20h10c5.514 0 10 4.486 10 10s-4.486 10-10 10z" data-original="#000000" class="active-path" data-old_color="#000000" fill="#07A89B"/><path d="m283.929 313.929-27.929 27.929-27.929-27.929c-3.905-3.905-10.237-3.905-14.143 0-3.905 3.905-3.905 10.237 0 14.143l35 35c1.953 1.953 4.512 2.929 7.071 2.929s5.119-.976 7.071-2.929l35-35c3.905-3.905 3.905-10.237 0-14.143-3.904-3.906-10.236-3.906-14.141 0z" data-original="#000000" class="active-path" data-old_color="#000000" fill="#07A89B"/><path d="m228.071 248.071 27.929-27.929 27.929 27.929c1.953 1.953 4.512 2.929 7.071 2.929s5.119-.976 7.071-2.929c3.905-3.905 3.905-10.237 0-14.143l-35-35c-3.905-3.905-10.237-3.905-14.143 0l-35 35c-3.905 3.905-3.905 10.237 0 14.143 3.906 3.906 10.238 3.906 14.143 0z" data-original="#000000" class="active-path" data-old_color="#000000" fill="#07A89B"/></g></g> </svg>
