<?xml version="1.0"?>
<svg xmlns="http://www.w3.org/2000/svg" height="512px" viewBox="0 0 60 60" width="512px"><g><g id="044---Streaming-TV"><path id="Shape" d="m18 15c0-1.6568542-1.3431458-3-3-3s-3 1.3431458-3 3 1.3431458 3 3 3 3-1.3431458 3-3zm-3 1c-.5522847 0-1-.4477153-1-1s.4477153-1 1-1 1 .4477153 1 1-.4477153 1-1 1z" data-original="#000000" class="active-path" data-old_color="#000000" fill="#07A89B"/><path id="Shape" d="m25 12c-1.6568542 0-3 1.3431458-3 3s1.3431458 3 3 3 3-1.3431458 3-3-1.3431458-3-3-3zm0 4c-.5522847 0-1-.4477153-1-1s.4477153-1 1-1 1 .4477153 1 1-.4477153 1-1 1z" data-original="#000000" class="active-path" data-old_color="#000000" fill="#07A89B"/><path id="Shape" d="m20.707 18.293c-.3904999-.3903819-1.0235001-.3903819-1.414 0l-2 2c-.3789722.3923789-.3735524 1.0160848.0121814 1.4018186s1.0094397.3911536 1.4018186.0121814l1.293-1.293 1.293 1.293c.3923789.3789722 1.0160848.3735524 1.4018186-.0121814s.3911536-1.0094397.0121814-1.4018186z" data-original="#000000" class="active-path" data-old_color="#000000" fill="#07A89B"/><path id="Shape" d="m25.707 23.293c-.3923789-.3789722-1.0160848-.3735524-1.4018186.0121814s-.3911536 1.0094397-.0121814 1.4018186l1.293 1.293-1.293 1.293c-.2859079.2859943-.3714219.7160366-.216678 1.0896546.1547439.3736179.5192821.6172591.923678.6173454.543 0 .565-.151 2.707-2.293.3903819-.3904999.3903819-1.0235001 0-1.414z" data-original="#000000" class="active-path" data-old_color="#000000" fill="#07A89B"/><path id="Shape" d="m15 36h-2c-.5522847 0-1 .4477153-1 1s.4477153 1 1 1h2c.5522847 0 1-.4477153 1-1s-.4477153-1-1-1z" data-original="#000000" class="active-path" data-old_color="#000000" fill="#07A89B"/><path id="Shape" d="m21 36h-2c-.5522847 0-1 .4477153-1 1s.4477153 1 1 1h2c.5522847 0 1-.4477153 1-1s-.4477153-1-1-1z" data-original="#000000" class="active-path" data-old_color="#000000" fill="#07A89B"/><path id="Shape" d="m15 40h-2c-.5522847 0-1 .4477153-1 1s.4477153 1 1 1h2c.5522847 0 1-.4477153 1-1s-.4477153-1-1-1z" data-original="#000000" class="active-path" data-old_color="#000000" fill="#07A89B"/><path id="Shape" d="m21 40h-2c-.5522847 0-1 .4477153-1 1s.4477153 1 1 1h2c.5522847 0 1-.4477153 1-1s-.4477153-1-1-1z" data-original="#000000" class="active-path" data-old_color="#000000" fill="#07A89B"/><path id="Shape" d="m27 40h-2c-.5522847 0-1 .4477153-1 1s.4477153 1 1 1h2c.5522847 0 1-.4477153 1-1s-.4477153-1-1-1z" data-original="#000000" class="active-path" data-old_color="#000000" fill="#07A89B"/><path id="Shape" d="m15 44h-2c-.5522847 0-1 .4477153-1 1s.4477153 1 1 1h2c.5522847 0 1-.4477153 1-1s-.4477153-1-1-1z" data-original="#000000" class="active-path" data-old_color="#000000" fill="#07A89B"/><path id="Shape" d="m21 44h-2c-.5522847 0-1 .4477153-1 1s.4477153 1 1 1h2c.5522847 0 1-.4477153 1-1s-.4477153-1-1-1z" data-original="#000000" class="active-path" data-old_color="#000000" fill="#07A89B"/><path id="Shape" d="m27 44h-2c-.5522847 0-1 .4477153-1 1s.4477153 1 1 1h2c.5522847 0 1-.4477153 1-1s-.4477153-1-1-1z" data-original="#000000" class="active-path" data-old_color="#000000" fill="#07A89B"/><path id="Shape" d="m57 0h-32c-1.6568542 0-3 1.34314575-3 3v4h-7c-4.4162219.00495988-7.99504012 3.5837781-8 8v8.979c-1.73897869-.1754477-3.47045321.3974309-4.76162518 1.5754393-1.29117198 1.1780083-2.02002479 2.8498239-2.00437482 4.5975607.091 7.439.08 6.788-.05 9.2-.109 2-.244 4.486-.155 5.675.01943702 1.8024007.65018846 3.5448119 1.789 4.942 1.018 1.455.805 1.217 1.673 2.543 1.66 2.522 1.509 2.882 1.509 4.488 0 1.6568542 1.34314575 3 3 3h12c1.6568542 0 3-1.3431458 3-3v-2.049c-.0005188-.3568753.1903171-.6866396.5-.864 1.9570125-1.0028072 3.6765712-2.4130977 5.043-4.136h.457c1.8239445-.0066474 3.4124068-1.2463225 3.862-3.014.047 0 .091.014.138.014h1.03c1.558922.0018428 2.9758472-.9052842 3.6266978-2.3218415.6508507-1.4165573.4161623-3.0825339-.6006978-4.2641585.8765633-.5303862 1.5161932-1.3769026 1.787-2.365h15.157c1.1045695 0 2-.8954305 2-2v-2c0-1.1045695-.8954305-2-2-2h-2v-2h5c1.6568542 0 3-1.3431458 3-3v-24c0-1.65685425-1.3431458-3-3-3zm-34.48 52.347c-.9375648.530055-1.5180413 1.5229753-1.52 2.6v2.053c0 .5522847-.4477153 1-1 1h-12c-.55228475 0-1-.4477153-1-1v-1c0-2.156-1.4-3.843-2.356-5.4-1.773-2.876-2.4-2.822-2.621-5.727-.115-1.556.224-6.084.268-7.733.021-.83-.057-7.016-.057-7.016-.00771659-1.1006424.42232966-2.1592258 1.19544556-2.9426574s1.82590642-1.2274706 2.92655444-1.2343426c2.283 0 3.066 1.442 5.372 2.1 1.4428741.3970175 2.9137483.6841723 4.4.859.4929796.0511948.8695197.4634116.876.959v.167c-.007.349-.206 3.316-5 3.4-.0615852-.0021634-.1231728.0042309-.183.019-.765.057-4.264-.649-4.922-1.966-.24852814-.4942948-.85070515-.6935281-1.34499999-.445-.49429484.2485282-.69352813.8507052-.44500001 1.345.43674762.7736475 1.09544683 1.3985583 1.891 1.794v11.772c0 2.209139 1.790861 4 4 4h14.87c-1.0175493.9288742-2.1421414 1.7332093-3.35 2.396zm6.48-4.4h-18c-1.1045695 0-2-.8954305-2-2v-10.961c3.231.937 7.392.561 9.188-2.384l1.105 1.105c.3904999.3903819 1.0235001.3903819 1.414 0l2-2c.3789722-.3923789.3735524-1.0160848-.0121814-1.4018186s-1.0094397-.3911536-1.4018186-.0121814l-1.293 1.293-1.049-1.05c.1149267-.609182.0492315-1.2386743-.189-1.811 1.3138948.5926169 2.8635521.1653045 3.6880294-1.0169609.8244774-1.1822655.6898984-2.784115-.3202845-3.8122419-1.0101829-1.028127-2.6094148-1.1908863-3.8060123-.387351s-1.651126 2.3454293-1.0817326 3.6695538c-.6658076-.2457747-1.3651543-.3887463-2.074-.424l-.754-.754 1.293-1.293c.3789722-.3923789.3735524-1.0160848-.0121814-1.4018186s-1.0094397-.3911536-1.4018186-.0121814l-2 2c-.1948974.1960489-.2986442.4648473-.286.741-1.138-.394-1.843-1.04-3.007-1.546v-9.488c.00330738-3.3123376 2.6876624-5.99669262 6-6h10c3.3123376.00330738 5.9966926 2.6876624 6 6v12.508c-1.1181209.6380554-1.8563002 1.7798123-1.9792176 3.061296-.1229175 1.2814837.3847693 2.5427416 1.3612176 3.381704-.8761565.7504377-1.380467 1.846394-1.380467 3s.5043105 2.2495623 1.380467 3c-.9698479.8328958-1.4778205 2.0828534-1.363922 3.3561748s.8356488 2.4132805 1.937922 3.0608252c-.1967923.9231046-1.0121518 1.5829789-1.956 1.583zm-10-21.947c0-.5522847.4477153-1 1-1s1 .4477153 1 1-.4477153 1-1 1-1-.4477153-1-1zm14-7.408 1.258-.5c.6655858-.262233 1.4205121-.1494604 1.9804054.2958373s.8396925 1.1554694.734 1.8630001c-.1056925.7075306-.5808196 1.3049297-1.2464054 1.5671626l-2.726 1.128zm2 20.359c-2.139 0-2.224.039-2.657-.119-.909855-.3285346-1.4541612-1.2611642-1.2926989-2.2149467s.9824061-1.655294 1.9496989-1.6660533h2c1.1045695 0 2 .8954305 2 2s-.8954305 2-2 2zm3-8c0 1.1045695-.8954305 2-2 2h-3c-.3811039-.0007023-.7539496-.111098-1.074-.318-.1051903-.2627732-.3177222-.4680266-.584-.564-.4336251-.6361846-.4566745-1.4667455-.059-2.126.3258356-.0969385.5777563-.3564358.665-.685.648-.4.881-.307 4.052-.307 1.1045695 0 2 .8954305 2 2zm-3.97 14h-1.03c-1.1045695 0-2-.8954305-2-2s.8954305-2 2-2h1.03c1.1045695 0 2 .8954305 2 2s-.8954305 2-2 2zm19.97-8.951h-15.127c-.1487926-.5993039-.4357786-1.1554678-.838-1.624.1845774-.1109111.3598224-.2366594.524-.376h15.441zm-4-4h-10.157c.1982885-.6505164.2086882-1.343829.03-2h10.127zm8-5c0 .5522847-.4477153 1-1 1h-18.323c-.7299753-.6717779-1.6849615-1.0459955-2.677-1.049h-3v-1.841l3.477-1.437c1.329028-.5282172 2.2753-1.725338 2.4823645-3.1404186s-.3565365-2.8331365-1.4785-3.72c-1.1219635-.8868634-2.6318365-1.1077986-3.9608645-.5795814l-.52.207v-1.44c-.0049599-4.4162219-3.5837781-7.99504012-8-8h-1v-4c0-.55228475.4477153-1 1-1h32c.5522847 0 1 .44771525 1 1z" data-original="#000000" class="active-path" data-old_color="#000000" fill="#07A89B"/><path id="Shape" d="m52.707 4.293c-.3923789-.37897221-1.0160848-.37355237-1.4018186.01218142-.3857338.3857338-.3911536 1.00943969-.0121814 1.40181858l3 3c.2510745.25995658.6228779.3642126.9725073.27269716.3496295-.09151544.6226744-.3645604.7141899-.71418984.0915154-.34962943-.0127406-.72143285-.2726972-.97250732z" data-original="#000000" class="active-path" data-old_color="#000000" fill="#07A89B"/><path id="Shape" d="m47.707 4.293c-.3923789-.37897221-1.0160848-.37355237-1.4018186.01218142-.3857338.3857338-.3911536 1.00943969-.0121814 1.40181858l8 8c.2510745.2599566.6228779.3642126.9725073.2726972.3496295-.0915155.6226744-.3645604.7141899-.7141899.0915154-.3496294-.0127406-.7214328-.2726972-.9725073z" data-original="#000000" class="active-path" data-old_color="#000000" fill="#07A89B"/></g></g> </svg>
